<svg width="64" height="64" viewBox="0 0 64 64" fill="none" xmlns="http://www.w3.org/2000/svg">
<path d="M46.2476 6.40896C46.2476 9.94816 43.3778 12.8179 39.8386 12.8179C36.2994 12.8179 33.4297 9.94816 33.4297 6.40896C33.4297 2.86976 36.2981 0 39.8386 0C43.3791 0 46.2476 2.86976 46.2476 6.40896ZM1.16471 22.9926C-0.218972 23.1322 -0.437852 25.0586 0.879268 25.504C9.25431 28.3366 21.3004 30.9952 27.2498 32.2342C29.2991 32.6605 30.6239 34.6483 30.2412 36.7066C28.5452 45.8061 25.3785 55.5277 23.3689 62.3347C22.9862 63.6314 24.599 64.5722 25.5385 63.6006C47.2102 41.2019 59.3894 18.199 63.8694 8.7232C64.4236 7.55072 63.1001 6.3872 62.0044 7.08096C45.3913 17.6064 13.8559 21.7178 1.16471 22.9926Z" fill="#A7AAAD"/>
</svg>